<?xml version="1.0" encoding="utf-8"?>
<?xml-stylesheet type="text/css" href="style.css" ?>
<svg version="1.1" viewBox="0 0 26 26" xmlns="http://www.w3.org/2000/svg">
<path class="lonilogo"
	d="
	M0,0 v26 h26 v-26 h-26z
	M6,5
		a3,3,0,0,1,6,0
		v12
		a3,3,0,1,1,-6,0
		v-12
	z
	M24,14
		v7
		a3,3,0,0,1,-6,0
		v-16
		a1,1,0,0,0,-2,0
		v12
		a7,7,0,0,1,-14,0
		v-15
		a2,2,0,0,1,2,2
		v13
		a5,5,0,0,0,10,0
		v-12
		a3,3,0,0,1,6,0
		v16
		a1,1,0,0,0,2,0
		v-7
		a2,2,0,0,1,2,-2
		v2
	z
	M24,4
		v4
		a2,2,0,0,1,-2,2
		v-6
		a2,2,0,0,1,2,-2
		v2
	z"/>
<path class="lonilogo" d="
	M8,17
		a1,1,0,0,0,2,0
		v-12
		a1,1,0,0,0,-2,0
		v12
	z"/>
</svg>
